<?xml version="1.0" encoding="UTF-8" standalone="no"?>
<!DOCTYPE svg PUBLIC "-//W3C//DTD SVG 1.1//EN" "http://www.w3.org/Graphics/SVG/1.1/DTD/svg11.dtd">
<svg version="1.1" xmlns="http://www.w3.org/2000/svg" xmlns:xlink="http://www.w3.org/1999/xlink" preserveAspectRatio="xMidYMid meet" viewBox="0 0 640 640" width="640" height="640"><defs><path d="M342.1 24.46C329.5 12.97 310.49 12.97 297.9 24.46C269.18 50.62 39.46 259.94 10.75 286.11C0.65 295.31 -2.68 309.48 2.25 322.22C7.18 334.95 19.19 343.18 32.85 343.18C35.91 343.18 51.2 343.18 78.72 343.18C78.72 500.47 78.72 587.86 78.72 605.33C78.72 615.73 87.14 624.16 97.54 624.16C113.28 624.16 239.19 624.16 254.93 624.16C265.32 624.16 273.75 615.73 273.75 605.33C273.75 594.72 273.75 541.67 273.75 446.16L366.25 446.16C366.25 541.67 366.25 594.72 366.25 605.34C366.25 615.73 374.68 624.16 385.07 624.16C400.81 624.16 526.72 624.16 542.46 624.16C552.85 624.16 561.28 615.73 561.28 605.34C561.28 587.86 561.28 500.47 561.28 343.18C588.8 343.18 604.09 343.18 607.15 343.18C620.81 343.18 632.82 334.95 637.76 322.22C642.68 309.48 639.35 295.31 629.25 286.11C571.82 233.78 370.82 50.62 342.1 24.46Z" id="j5zKytX4OX"></path><path d="M429.97 53.41L575.19 185.46C575.19 117.52 575.19 79.78 575.19 72.23C575.19 61.84 566.76 53.41 556.36 53.41C539.51 53.41 497.38 53.41 429.97 53.41Z" id="g1PDYTdlh9"></path></defs><g><g><g><use xlink:href="#j5zKytX4OX" opacity="1" fill="#101820" fill-opacity="1"></use><g><use xlink:href="#j5zKytX4OX" opacity="1" fill-opacity="0" stroke="#000000" stroke-width="1" stroke-opacity="0"></use></g></g><g><use xlink:href="#g1PDYTdlh9" opacity="1" fill="#101820" fill-opacity="1"></use><g><use xlink:href="#g1PDYTdlh9" opacity="1" fill-opacity="0" stroke="#000000" stroke-width="1" stroke-opacity="0"></use></g></g></g></g></svg>