<?xml version="1.0" encoding="UTF-8" standalone="no"?>
<!DOCTYPE svg PUBLIC "-//W3C//DTD SVG 1.1//EN" "http://www.w3.org/Graphics/SVG/1.1/DTD/svg11.dtd">
<svg version="1.1" xmlns="http://www.w3.org/2000/svg" xmlns:xlink="http://www.w3.org/1999/xlink" preserveAspectRatio="xMidYMid meet" viewBox="0 0 640 640" width="640" height="640"><defs><path d="M198.13 269.8C197.44 264.38 199.3 258.95 203.17 255.11C207.13 251.16 238.77 219.53 242.72 215.58C248.54 209.77 249.57 200.7 245.21 193.73C238.91 183.95 188.54 105.73 182.24 95.96C177.42 88.23 167.51 85.45 159.37 89.52C149.26 94.28 68.4 132.37 58.29 137.13C51.7 140.37 47.83 147.37 48.58 154.67C53.87 204.99 75.81 328.68 197.37 450.24C318.92 571.81 442.6 593.74 492.94 599.03C500.24 599.78 507.24 595.91 510.48 589.32C515.24 579.21 553.33 498.35 558.09 488.24C562.15 480.11 559.38 470.23 551.69 465.4C541.91 459.1 463.69 408.75 453.91 402.45C446.94 398.09 437.88 399.11 432.06 404.92C428.11 408.88 396.49 440.51 392.53 444.47C388.69 448.34 383.26 450.21 377.85 449.51C358.27 447.02 309.4 435.99 260.53 387.12C211.66 338.25 200.62 289.38 198.13 269.8Z" id="f1RlZAERUw"></path><path d="M436.93 343.13C436.85 270.03 377.61 210.8 304.51 210.71C294.76 210.71 286.86 202.81 286.86 193.06C286.86 183.31 294.76 175.4 304.51 175.4C397.1 175.51 472.14 250.54 472.24 343.13C472.24 352.88 464.33 360.78 454.58 360.78C444.83 360.78 436.93 352.88 436.93 343.13Z" id="f2umGZyTt"></path><path d="M525.2 343.13C525.07 221.3 426.34 122.58 304.51 122.44C294.76 122.44 286.86 114.53 286.86 104.78C286.86 95.03 294.76 87.13 304.51 87.13C445.84 87.28 560.36 201.81 560.51 343.13C560.51 347.81 558.65 352.3 555.34 355.61C552.03 358.92 547.54 360.78 542.86 360.78C533.11 360.78 525.2 352.88 525.2 343.13Z" id="aNDUjQ2J6"></path></defs><g><g><g><use xlink:href="#f1RlZAERUw" opacity="1" fill="#101820" fill-opacity="1"></use><g><use xlink:href="#f1RlZAERUw" opacity="1" fill-opacity="0" stroke="#000000" stroke-width="1" stroke-opacity="0"></use></g></g><g><use xlink:href="#f2umGZyTt" opacity="1" fill="#101820" fill-opacity="1"></use><g><use xlink:href="#f2umGZyTt" opacity="1" fill-opacity="0" stroke="#000000" stroke-width="1" stroke-opacity="0"></use></g></g><g><use xlink:href="#aNDUjQ2J6" opacity="1" fill="#101820" fill-opacity="1"></use><g><use xlink:href="#aNDUjQ2J6" opacity="1" fill-opacity="0" stroke="#000000" stroke-width="1" stroke-opacity="0"></use></g></g></g></g></svg>